<svg class="rich-terminal" viewBox="0 0 1238 830.8" xmlns="http://www.w3.org/2000/svg">
    <!-- Generated with Rich https://www.textualize.io -->
    <style>

    @font-face {
        font-family: "Fira Code";
        src: local("FiraCode-Regular"),
                url("https://cdnjs.cloudflare.com/ajax/libs/firacode/6.2.0/woff2/FiraCode-Regular.woff2") format("woff2"),
                url("https://cdnjs.cloudflare.com/ajax/libs/firacode/6.2.0/woff/FiraCode-Regular.woff") format("woff");
        font-style: normal;
        font-weight: 400;
    }
    @font-face {
        font-family: "Fira Code";
        src: local("FiraCode-Bold"),
                url("https://cdnjs.cloudflare.com/ajax/libs/firacode/6.2.0/woff2/FiraCode-Bold.woff2") format("woff2"),
                url("https://cdnjs.cloudflare.com/ajax/libs/firacode/6.2.0/woff/FiraCode-Bold.woff") format("woff");
        font-style: bold;
        font-weight: 700;
    }

    .terminal-2818036854-matrix {
        font-family: Fira Code, monospace;
        font-size: 20px;
        line-height: 24.4px;
        font-variant-east-asian: full-width;
    }

    .terminal-2818036854-title {
        font-size: 18px;
        font-weight: bold;
        font-family: arial;
    }

    .terminal-2818036854-r1 { fill: #c5c8c6 }
.terminal-2818036854-r2 { fill: #ffffff }
.terminal-2818036854-r3 { fill: #5e5e5e }
.terminal-2818036854-r4 { fill: #ffffff;font-weight: bold }
.terminal-2818036854-r5 { fill: #ffffff;font-weight: bold;text-decoration: underline; }
.terminal-2818036854-r6 { fill: #b0b0b0;font-weight: bold }
.terminal-2818036854-r7 { fill: #e0e0e0 }
.terminal-2818036854-r8 { fill: #3b3b3b }
    </style>

    <defs>
    <clipPath id="terminal-2818036854-clip-terminal">
      <rect x="0" y="0" width="1219.0" height="779.8" />
    </clipPath>
    <clipPath id="terminal-2818036854-line-0">
    <rect x="0" y="1.5" width="1220" height="24.65"/>
            </clipPath>
<clipPath id="terminal-2818036854-line-1">
    <rect x="0" y="25.9" width="1220" height="24.65"/>
            </clipPath>
<clipPath id="terminal-2818036854-line-2">
    <rect x="0" y="50.3" width="1220" height="24.65"/>
            </clipPath>
<clipPath id="terminal-2818036854-line-3">
    <rect x="0" y="74.7" width="1220" height="24.65"/>
            </clipPath>
<clipPath id="terminal-2818036854-line-4">
    <rect x="0" y="99.1" width="1220" height="24.65"/>
            </clipPath>
<clipPath id="terminal-2818036854-line-5">
    <rect x="0" y="123.5" width="1220" height="24.65"/>
            </clipPath>
<clipPath id="terminal-2818036854-line-6">
    <rect x="0" y="147.9" width="1220" height="24.65"/>
            </clipPath>
<clipPath id="terminal-2818036854-line-7">
    <rect x="0" y="172.3" width="1220" height="24.65"/>
            </clipPath>
<clipPath id="terminal-2818036854-line-8">
    <rect x="0" y="196.7" width="1220" height="24.65"/>
            </clipPath>
<clipPath id="terminal-2818036854-line-9">
    <rect x="0" y="221.1" width="1220" height="24.65"/>
            </clipPath>
<clipPath id="terminal-2818036854-line-10">
    <rect x="0" y="245.5" width="1220" height="24.65"/>
            </clipPath>
<clipPath id="terminal-2818036854-line-11">
    <rect x="0" y="269.9" width="1220" height="24.65"/>
            </clipPath>
<clipPath id="terminal-2818036854-line-12">
    <rect x="0" y="294.3" width="1220" height="24.65"/>
            </clipPath>
<clipPath id="terminal-2818036854-line-13">
    <rect x="0" y="318.7" width="1220" height="24.65"/>
            </clipPath>
<clipPath id="terminal-2818036854-line-14">
    <rect x="0" y="343.1" width="1220" height="24.65"/>
            </clipPath>
<clipPath id="terminal-2818036854-line-15">
    <rect x="0" y="367.5" width="1220" height="24.65"/>
            </clipPath>
<clipPath id="terminal-2818036854-line-16">
    <rect x="0" y="391.9" width="1220" height="24.65"/>
            </clipPath>
<clipPath id="terminal-2818036854-line-17">
    <rect x="0" y="416.3" width="1220" height="24.65"/>
            </clipPath>
<clipPath id="terminal-2818036854-line-18">
    <rect x="0" y="440.7" width="1220" height="24.65"/>
            </clipPath>
<clipPath id="terminal-2818036854-line-19">
    <rect x="0" y="465.1" width="1220" height="24.65"/>
            </clipPath>
<clipPath id="terminal-2818036854-line-20">
    <rect x="0" y="489.5" width="1220" height="24.65"/>
            </clipPath>
<clipPath id="terminal-2818036854-line-21">
    <rect x="0" y="513.9" width="1220" height="24.65"/>
            </clipPath>
<clipPath id="terminal-2818036854-line-22">
    <rect x="0" y="538.3" width="1220" height="24.65"/>
            </clipPath>
<clipPath id="terminal-2818036854-line-23">
    <rect x="0" y="562.7" width="1220" height="24.65"/>
            </clipPath>
<clipPath id="terminal-2818036854-line-24">
    <rect x="0" y="587.1" width="1220" height="24.65"/>
            </clipPath>
<clipPath id="terminal-2818036854-line-25">
    <rect x="0" y="611.5" width="1220" height="24.65"/>
            </clipPath>
<clipPath id="terminal-2818036854-line-26">
    <rect x="0" y="635.9" width="1220" height="24.65"/>
            </clipPath>
<clipPath id="terminal-2818036854-line-27">
    <rect x="0" y="660.3" width="1220" height="24.65"/>
            </clipPath>
<clipPath id="terminal-2818036854-line-28">
    <rect x="0" y="684.7" width="1220" height="24.65"/>
            </clipPath>
<clipPath id="terminal-2818036854-line-29">
    <rect x="0" y="709.1" width="1220" height="24.65"/>
            </clipPath>
<clipPath id="terminal-2818036854-line-30">
    <rect x="0" y="733.5" width="1220" height="24.65"/>
            </clipPath>
    </defs>

    <rect fill="#292929" stroke="rgba(255,255,255,0.35)" stroke-width="1" x="1" y="1" width="1236" height="828.8" rx="8"/><text class="terminal-2818036854-title" fill="#c5c8c6" text-anchor="middle" x="618" y="27">PentUI&#160;tool&#160;selection</text>
            <g transform="translate(26,22)">
            <circle cx="0" cy="0" r="7" fill="#ff5f57"/>
            <circle cx="22" cy="0" r="7" fill="#febc2e"/>
            <circle cx="44" cy="0" r="7" fill="#28c840"/>
            </g>
        
    <g transform="translate(9, 41)" clip-path="url(#terminal-2818036854-clip-terminal)">
    <rect fill="#121212" x="0" y="1.5" width="12.2" height="24.65" shape-rendering="crispEdges"/><rect fill="#121212" x="12.2" y="1.5" width="12.2" height="24.65" shape-rendering="crispEdges"/><rect fill="#121212" x="24.4" y="1.5" width="61" height="24.65" shape-rendering="crispEdges"/><rect fill="#121212" x="85.4" y="1.5" width="12.2" height="24.65" shape-rendering="crispEdges"/><rect fill="#121212" x="97.6" y="1.5" width="463.6" height="24.65" shape-rendering="crispEdges"/><rect fill="#121212" x="561.2" y="1.5" width="73.2" height="24.65" shape-rendering="crispEdges"/><rect fill="#121212" x="634.4" y="1.5" width="463.6" height="24.65" shape-rendering="crispEdges"/><rect fill="#121212" x="1098" y="1.5" width="12.2" height="24.65" shape-rendering="crispEdges"/><rect fill="#121212" x="1110.2" y="1.5" width="0" height="24.65" shape-rendering="crispEdges"/><rect fill="#121212" x="1110.2" y="1.5" width="97.6" height="24.65" shape-rendering="crispEdges"/><rect fill="#121212" x="1207.8" y="1.5" width="12.2" height="24.65" shape-rendering="crispEdges"/><rect fill="#121212" x="0" y="25.9" width="1220" height="24.65" shape-rendering="crispEdges"/><rect fill="#121212" x="0" y="50.3" width="1220" height="24.65" shape-rendering="crispEdges"/><rect fill="#121212" x="0" y="74.7" width="1220" height="24.65" shape-rendering="crispEdges"/><rect fill="#121212" x="0" y="99.1" width="146.4" height="24.65" shape-rendering="crispEdges"/><rect fill="#121212" x="146.4" y="99.1" width="12.2" height="24.65" shape-rendering="crispEdges"/><rect fill="#121212" x="158.6" y="99.1" width="902.8" height="24.65" shape-rendering="crispEdges"/><rect fill="#121212" x="1061.4" y="99.1" width="12.2" height="24.65" shape-rendering="crispEdges"/><rect fill="#121212" x="1073.6" y="99.1" width="146.4" height="24.65" shape-rendering="crispEdges"/><rect fill="#121212" x="0" y="123.5" width="146.4" height="24.65" shape-rendering="crispEdges"/><rect fill="#121212" x="146.4" y="123.5" width="12.2" height="24.65" shape-rendering="crispEdges"/><rect fill="#121212" x="158.6" y="123.5" width="902.8" height="24.65" shape-rendering="crispEdges"/><rect fill="#121212" x="1061.4" y="123.5" width="12.2" height="24.65" shape-rendering="crispEdges"/><rect fill="#121212" x="1073.6" y="123.5" width="146.4" height="24.65" shape-rendering="crispEdges"/><rect fill="#121212" x="0" y="147.9" width="146.4" height="24.65" shape-rendering="crispEdges"/><rect fill="#121212" x="146.4" y="147.9" width="12.2" height="24.65" shape-rendering="crispEdges"/><rect fill="#121212" x="158.6" y="147.9" width="36.6" height="24.65" shape-rendering="crispEdges"/><rect fill="#121212" x="195.2" y="147.9" width="73.2" height="24.65" shape-rendering="crispEdges"/><rect fill="#121212" x="268.4" y="147.9" width="756.4" height="24.65" shape-rendering="crispEdges"/><rect fill="#121212" x="1024.8" y="147.9" width="36.6" height="24.65" shape-rendering="crispEdges"/><rect fill="#121212" x="1061.4" y="147.9" width="12.2" height="24.65" shape-rendering="crispEdges"/><rect fill="#121212" x="1073.6" y="147.9" width="146.4" height="24.65" shape-rendering="crispEdges"/><rect fill="#121212" x="0" y="172.3" width="146.4" height="24.65" shape-rendering="crispEdges"/><rect fill="#121212" x="146.4" y="172.3" width="12.2" height="24.65" shape-rendering="crispEdges"/><rect fill="#121212" x="158.6" y="172.3" width="36.6" height="24.65" shape-rendering="crispEdges"/><rect fill="#121212" x="195.2" y="172.3" width="353.8" height="24.65" shape-rendering="crispEdges"/><rect fill="#121212" x="549" y="172.3" width="475.8" height="24.65" shape-rendering="crispEdges"/><rect fill="#121212" x="1024.8" y="172.3" width="36.6" height="24.65" shape-rendering="crispEdges"/><rect fill="#121212" x="1061.4" y="172.3" width="12.2" height="24.65" shape-rendering="crispEdges"/><rect fill="#121212" x="1073.6" y="172.3" width="146.4" height="24.65" shape-rendering="crispEdges"/><rect fill="#121212" x="0" y="196.7" width="146.4" height="24.65" shape-rendering="crispEdges"/><rect fill="#121212" x="146.4" y="196.7" width="12.2" height="24.65" shape-rendering="crispEdges"/><rect fill="#121212" x="158.6" y="196.7" width="36.6" height="24.65" shape-rendering="crispEdges"/><rect fill="#121212" x="195.2" y="196.7" width="829.6" height="24.65" shape-rendering="crispEdges"/><rect fill="#121212" x="1024.8" y="196.7" width="36.6" height="24.65" shape-rendering="crispEdges"/><rect fill="#121212" x="1061.4" y="196.7" width="12.2" height="24.65" shape-rendering="crispEdges"/><rect fill="#121212" x="1073.6" y="196.7" width="146.4" height="24.65" shape-rendering="crispEdges"/><rect fill="#121212" x="0" y="221.1" width="146.4" height="24.65" shape-rendering="crispEdges"/><rect fill="#121212" x="146.4" y="221.1" width="12.2" height="24.65" shape-rendering="crispEdges"/><rect fill="#121212" x="158.6" y="221.1" width="36.6" height="24.65" shape-rendering="crispEdges"/><rect fill="#121212" x="195.2" y="221.1" width="780.8" height="24.65" shape-rendering="crispEdges"/><rect fill="#121212" x="976" y="221.1" width="48.8" height="24.65" shape-rendering="crispEdges"/><rect fill="#121212" x="1024.8" y="221.1" width="36.6" height="24.65" shape-rendering="crispEdges"/><rect fill="#121212" x="1061.4" y="221.1" width="12.2" height="24.65" shape-rendering="crispEdges"/><rect fill="#121212" x="1073.6" y="221.1" width="146.4" height="24.65" shape-rendering="crispEdges"/><rect fill="#121212" x="0" y="245.5" width="146.4" height="24.65" shape-rendering="crispEdges"/><rect fill="#121212" x="146.4" y="245.5" width="12.2" height="24.65" shape-rendering="crispEdges"/><rect fill="#121212" x="158.6" y="245.5" width="36.6" height="24.65" shape-rendering="crispEdges"/><rect fill="#121212" x="195.2" y="245.5" width="829.6" height="24.65" shape-rendering="crispEdges"/><rect fill="#121212" x="1024.8" y="245.5" width="36.6" height="24.65" shape-rendering="crispEdges"/><rect fill="#121212" x="1061.4" y="245.5" width="12.2" height="24.65" shape-rendering="crispEdges"/><rect fill="#121212" x="1073.6" y="245.5" width="146.4" height="24.65" shape-rendering="crispEdges"/><rect fill="#121212" x="0" y="269.9" width="146.4" height="24.65" shape-rendering="crispEdges"/><rect fill="#121212" x="146.4" y="269.9" width="12.2" height="24.65" shape-rendering="crispEdges"/><rect fill="#121212" x="158.6" y="269.9" width="36.6" height="24.65" shape-rendering="crispEdges"/><rect fill="#121212" x="195.2" y="269.9" width="402.6" height="24.65" shape-rendering="crispEdges"/><rect fill="#121212" x="597.8" y="269.9" width="427" height="24.65" shape-rendering="crispEdges"/><rect fill="#121212" x="1024.8" y="269.9" width="36.6" height="24.65" shape-rendering="crispEdges"/><rect fill="#121212" x="1061.4" y="269.9" width="12.2" height="24.65" shape-rendering="crispEdges"/><rect fill="#121212" x="1073.6" y="269.9" width="146.4" height="24.65" shape-rendering="crispEdges"/><rect fill="#121212" x="0" y="294.3" width="146.4" height="24.65" shape-rendering="crispEdges"/><rect fill="#121212" x="146.4" y="294.3" width="12.2" height="24.65" shape-rendering="crispEdges"/><rect fill="#121212" x="158.6" y="294.3" width="36.6" height="24.65" shape-rendering="crispEdges"/><rect fill="#121212" x="195.2" y="294.3" width="829.6" height="24.65" shape-rendering="crispEdges"/><rect fill="#121212" x="1024.8" y="294.3" width="36.6" height="24.65" shape-rendering="crispEdges"/><rect fill="#121212" x="1061.4" y="294.3" width="12.2" height="24.65" shape-rendering="crispEdges"/><rect fill="#121212" x="1073.6" y="294.3" width="146.4" height="24.65" shape-rendering="crispEdges"/><rect fill="#121212" x="0" y="318.7" width="146.4" height="24.65" shape-rendering="crispEdges"/><rect fill="#121212" x="146.4" y="318.7" width="12.2" height="24.65" shape-rendering="crispEdges"/><rect fill="#121212" x="158.6" y="318.7" width="36.6" height="24.65" shape-rendering="crispEdges"/><rect fill="#121212" x="195.2" y="318.7" width="12.2" height="24.65" shape-rendering="crispEdges"/><rect fill="#121212" x="207.4" y="318.7" width="36.6" height="24.65" shape-rendering="crispEdges"/><rect fill="#121212" x="244" y="318.7" width="12.2" height="24.65" shape-rendering="crispEdges"/><rect fill="#121212" x="256.2" y="318.7" width="707.6" height="24.65" shape-rendering="crispEdges"/><rect fill="#121212" x="963.8" y="318.7" width="12.2" height="24.65" shape-rendering="crispEdges"/><rect fill="#121212" x="976" y="318.7" width="36.6" height="24.65" shape-rendering="crispEdges"/><rect fill="#121212" x="1012.6" y="318.7" width="12.2" height="24.65" shape-rendering="crispEdges"/><rect fill="#121212" x="1024.8" y="318.7" width="36.6" height="24.65" shape-rendering="crispEdges"/><rect fill="#121212" x="1061.4" y="318.7" width="12.2" height="24.65" shape-rendering="crispEdges"/><rect fill="#121212" x="1073.6" y="318.7" width="146.4" height="24.65" shape-rendering="crispEdges"/><rect fill="#121212" x="0" y="343.1" width="146.4" height="24.65" shape-rendering="crispEdges"/><rect fill="#121212" x="146.4" y="343.1" width="12.2" height="24.65" shape-rendering="crispEdges"/><rect fill="#121212" x="158.6" y="343.1" width="36.6" height="24.65" shape-rendering="crispEdges"/><rect fill="#121212" x="195.2" y="343.1" width="12.2" height="24.65" shape-rendering="crispEdges"/><rect fill="#121212" x="207.4" y="343.1" width="36.6" height="24.65" shape-rendering="crispEdges"/><rect fill="#121212" x="244" y="343.1" width="12.2" height="24.65" shape-rendering="crispEdges"/><rect fill="#121212" x="256.2" y="343.1" width="707.6" height="24.65" shape-rendering="crispEdges"/><rect fill="#121212" x="963.8" y="343.1" width="12.2" height="24.65" shape-rendering="crispEdges"/><rect fill="#121212" x="976" y="343.1" width="36.6" height="24.65" shape-rendering="crispEdges"/><rect fill="#121212" x="1012.6" y="343.1" width="12.2" height="24.65" shape-rendering="crispEdges"/><rect fill="#121212" x="1024.8" y="343.1" width="36.6" height="24.65" shape-rendering="crispEdges"/><rect fill="#121212" x="1061.4" y="343.1" width="12.2" height="24.65" shape-rendering="crispEdges"/><rect fill="#121212" x="1073.6" y="343.1" width="146.4" height="24.65" shape-rendering="crispEdges"/><rect fill="#121212" x="0" y="367.5" width="146.4" height="24.65" shape-rendering="crispEdges"/><rect fill="#121212" x="146.4" y="367.5" width="12.2" height="24.65" shape-rendering="crispEdges"/><rect fill="#121212" x="158.6" y="367.5" width="36.6" height="24.65" shape-rendering="crispEdges"/><rect fill="#121212" x="195.2" y="367.5" width="12.2" height="24.65" shape-rendering="crispEdges"/><rect fill="#121212" x="207.4" y="367.5" width="36.6" height="24.65" shape-rendering="crispEdges"/><rect fill="#121212" x="244" y="367.5" width="12.2" height="24.65" shape-rendering="crispEdges"/><rect fill="#121212" x="256.2" y="367.5" width="707.6" height="24.65" shape-rendering="crispEdges"/><rect fill="#121212" x="963.8" y="367.5" width="12.2" height="24.65" shape-rendering="crispEdges"/><rect fill="#121212" x="976" y="367.5" width="36.6" height="24.65" shape-rendering="crispEdges"/><rect fill="#121212" x="1012.6" y="367.5" width="12.2" height="24.65" shape-rendering="crispEdges"/><rect fill="#121212" x="1024.8" y="367.5" width="36.6" height="24.65" shape-rendering="crispEdges"/><rect fill="#121212" x="1061.4" y="367.5" width="12.2" height="24.65" shape-rendering="crispEdges"/><rect fill="#121212" x="1073.6" y="367.5" width="146.4" height="24.65" shape-rendering="crispEdges"/><rect fill="#121212" x="0" y="391.9" width="146.4" height="24.65" shape-rendering="crispEdges"/><rect fill="#121212" x="146.4" y="391.9" width="12.2" height="24.65" shape-rendering="crispEdges"/><rect fill="#121212" x="158.6" y="391.9" width="36.6" height="24.65" shape-rendering="crispEdges"/><rect fill="#121212" x="195.2" y="391.9" width="12.2" height="24.65" shape-rendering="crispEdges"/><rect fill="#121212" x="207.4" y="391.9" width="36.6" height="24.65" shape-rendering="crispEdges"/><rect fill="#121212" x="244" y="391.9" width="12.2" height="24.65" shape-rendering="crispEdges"/><rect fill="#121212" x="256.2" y="391.9" width="707.6" height="24.65" shape-rendering="crispEdges"/><rect fill="#121212" x="963.8" y="391.9" width="12.2" height="24.65" shape-rendering="crispEdges"/><rect fill="#121212" x="976" y="391.9" width="36.6" height="24.65" shape-rendering="crispEdges"/><rect fill="#121212" x="1012.6" y="391.9" width="12.2" height="24.65" shape-rendering="crispEdges"/><rect fill="#121212" x="1024.8" y="391.9" width="36.6" height="24.65" shape-rendering="crispEdges"/><rect fill="#121212" x="1061.4" y="391.9" width="12.2" height="24.65" shape-rendering="crispEdges"/><rect fill="#121212" x="1073.6" y="391.9" width="146.4" height="24.65" shape-rendering="crispEdges"/><rect fill="#121212" x="0" y="416.3" width="146.4" height="24.65" shape-rendering="crispEdges"/><rect fill="#121212" x="146.4" y="416.3" width="12.2" height="24.65" shape-rendering="crispEdges"/><rect fill="#121212" x="158.6" y="416.3" width="36.6" height="24.65" shape-rendering="crispEdges"/><rect fill="#121212" x="195.2" y="416.3" width="12.2" height="24.65" shape-rendering="crispEdges"/><rect fill="#121212" x="207.4" y="416.3" width="36.6" height="24.65" shape-rendering="crispEdges"/><rect fill="#121212" x="244" y="416.3" width="12.2" height="24.65" shape-rendering="crispEdges"/><rect fill="#121212" x="256.2" y="416.3" width="707.6" height="24.65" shape-rendering="crispEdges"/><rect fill="#121212" x="963.8" y="416.3" width="12.2" height="24.65" shape-rendering="crispEdges"/><rect fill="#121212" x="976" y="416.3" width="36.6" height="24.65" shape-rendering="crispEdges"/><rect fill="#121212" x="1012.6" y="416.3" width="12.2" height="24.65" shape-rendering="crispEdges"/><rect fill="#121212" x="1024.8" y="416.3" width="36.6" height="24.65" shape-rendering="crispEdges"/><rect fill="#121212" x="1061.4" y="416.3" width="12.2" height="24.65" shape-rendering="crispEdges"/><rect fill="#121212" x="1073.6" y="416.3" width="146.4" height="24.65" shape-rendering="crispEdges"/><rect fill="#121212" x="0" y="440.7" width="146.4" height="24.65" shape-rendering="crispEdges"/><rect fill="#121212" x="146.4" y="440.7" width="12.2" height="24.65" shape-rendering="crispEdges"/><rect fill="#121212" x="158.6" y="440.7" width="36.6" height="24.65" shape-rendering="crispEdges"/><rect fill="#121212" x="195.2" y="440.7" width="12.2" height="24.65" shape-rendering="crispEdges"/><rect fill="#121212" x="207.4" y="440.7" width="36.6" height="24.65" shape-rendering="crispEdges"/><rect fill="#121212" x="244" y="440.7" width="12.2" height="24.65" shape-rendering="crispEdges"/><rect fill="#121212" x="256.2" y="440.7" width="707.6" height="24.65" shape-rendering="crispEdges"/><rect fill="#121212" x="963.8" y="440.7" width="12.2" height="24.65" shape-rendering="crispEdges"/><rect fill="#121212" x="976" y="440.7" width="36.6" height="24.65" shape-rendering="crispEdges"/><rect fill="#121212" x="1012.6" y="440.7" width="12.2" height="24.65" shape-rendering="crispEdges"/><rect fill="#121212" x="1024.8" y="440.7" width="36.6" height="24.65" shape-rendering="crispEdges"/><rect fill="#121212" x="1061.4" y="440.7" width="12.2" height="24.65" shape-rendering="crispEdges"/><rect fill="#121212" x="1073.6" y="440.7" width="146.4" height="24.65" shape-rendering="crispEdges"/><rect fill="#121212" x="0" y="465.1" width="146.4" height="24.65" shape-rendering="crispEdges"/><rect fill="#121212" x="146.4" y="465.1" width="12.2" height="24.65" shape-rendering="crispEdges"/><rect fill="#121212" x="158.6" y="465.1" width="36.6" height="24.65" shape-rendering="crispEdges"/><rect fill="#121212" x="195.2" y="465.1" width="829.6" height="24.65" shape-rendering="crispEdges"/><rect fill="#121212" x="1024.8" y="465.1" width="36.6" height="24.65" shape-rendering="crispEdges"/><rect fill="#121212" x="1061.4" y="465.1" width="12.2" height="24.65" shape-rendering="crispEdges"/><rect fill="#121212" x="1073.6" y="465.1" width="146.4" height="24.65" shape-rendering="crispEdges"/><rect fill="#121212" x="0" y="489.5" width="146.4" height="24.65" shape-rendering="crispEdges"/><rect fill="#121212" x="146.4" y="489.5" width="12.2" height="24.65" shape-rendering="crispEdges"/><rect fill="#121212" x="158.6" y="489.5" width="36.6" height="24.65" shape-rendering="crispEdges"/><rect fill="#121212" x="195.2" y="489.5" width="427" height="24.65" shape-rendering="crispEdges"/><rect fill="#121212" x="622.2" y="489.5" width="402.6" height="24.65" shape-rendering="crispEdges"/><rect fill="#121212" x="1024.8" y="489.5" width="36.6" height="24.65" shape-rendering="crispEdges"/><rect fill="#121212" x="1061.4" y="489.5" width="12.2" height="24.65" shape-rendering="crispEdges"/><rect fill="#121212" x="1073.6" y="489.5" width="146.4" height="24.65" shape-rendering="crispEdges"/><rect fill="#121212" x="0" y="513.9" width="146.4" height="24.65" shape-rendering="crispEdges"/><rect fill="#121212" x="146.4" y="513.9" width="12.2" height="24.65" shape-rendering="crispEdges"/><rect fill="#121212" x="158.6" y="513.9" width="902.8" height="24.65" shape-rendering="crispEdges"/><rect fill="#121212" x="1061.4" y="513.9" width="12.2" height="24.65" shape-rendering="crispEdges"/><rect fill="#121212" x="1073.6" y="513.9" width="146.4" height="24.65" shape-rendering="crispEdges"/><rect fill="#121212" x="0" y="538.3" width="146.4" height="24.65" shape-rendering="crispEdges"/><rect fill="#121212" x="146.4" y="538.3" width="12.2" height="24.65" shape-rendering="crispEdges"/><rect fill="#121212" x="158.6" y="538.3" width="902.8" height="24.65" shape-rendering="crispEdges"/><rect fill="#121212" x="1061.4" y="538.3" width="12.2" height="24.65" shape-rendering="crispEdges"/><rect fill="#121212" x="1073.6" y="538.3" width="146.4" height="24.65" shape-rendering="crispEdges"/><rect fill="#121212" x="0" y="562.7" width="1220" height="24.65" shape-rendering="crispEdges"/><rect fill="#121212" x="0" y="587.1" width="1220" height="24.65" shape-rendering="crispEdges"/><rect fill="#121212" x="0" y="611.5" width="1220" height="24.65" shape-rendering="crispEdges"/><rect fill="#121212" x="0" y="635.9" width="1220" height="24.65" shape-rendering="crispEdges"/><rect fill="#121212" x="0" y="660.3" width="1220" height="24.65" shape-rendering="crispEdges"/><rect fill="#121212" x="0" y="684.7" width="1220" height="24.65" shape-rendering="crispEdges"/><rect fill="#121212" x="0" y="709.1" width="1220" height="24.65" shape-rendering="crispEdges"/><rect fill="#121212" x="0" y="733.5" width="1220" height="24.65" shape-rendering="crispEdges"/><rect fill="#121212" x="0" y="757.9" width="36.6" height="24.65" shape-rendering="crispEdges"/><rect fill="#121212" x="36.6" y="757.9" width="61" height="24.65" shape-rendering="crispEdges"/><rect fill="#121212" x="97.6" y="757.9" width="976" height="24.65" shape-rendering="crispEdges"/><rect fill="#121212" x="1073.6" y="757.9" width="12.2" height="24.65" shape-rendering="crispEdges"/><rect fill="#121212" x="1085.8" y="757.9" width="24.4" height="24.65" shape-rendering="crispEdges"/><rect fill="#121212" x="1110.2" y="757.9" width="97.6" height="24.65" shape-rendering="crispEdges"/><rect fill="#121212" x="1207.8" y="757.9" width="12.2" height="24.65" shape-rendering="crispEdges"/>
    <g class="terminal-2818036854-matrix">
    <text class="terminal-2818036854-r2" x="12.2" y="20" textLength="12.2" clip-path="url(#terminal-2818036854-line-0)">⭘</text><text class="terminal-2818036854-r2" x="561.2" y="20" textLength="73.2" clip-path="url(#terminal-2818036854-line-0)">PentUI</text><text class="terminal-2818036854-r1" x="1220" y="20" textLength="12.2" clip-path="url(#terminal-2818036854-line-0)">
</text><text class="terminal-2818036854-r1" x="1220" y="44.4" textLength="12.2" clip-path="url(#terminal-2818036854-line-1)">
</text><text class="terminal-2818036854-r1" x="1220" y="68.8" textLength="12.2" clip-path="url(#terminal-2818036854-line-2)">
</text><text class="terminal-2818036854-r1" x="1220" y="93.2" textLength="12.2" clip-path="url(#terminal-2818036854-line-3)">
</text><text class="terminal-2818036854-r3" x="146.4" y="117.6" textLength="12.2" clip-path="url(#terminal-2818036854-line-4)">╭</text><text class="terminal-2818036854-r3" x="158.6" y="117.6" textLength="902.8" clip-path="url(#terminal-2818036854-line-4)">──────────────────────────────────────────────────────────────────────────</text><text class="terminal-2818036854-r3" x="1061.4" y="117.6" textLength="12.2" clip-path="url(#terminal-2818036854-line-4)">╮</text><text class="terminal-2818036854-r1" x="1220" y="117.6" textLength="12.2" clip-path="url(#terminal-2818036854-line-4)">
</text><text class="terminal-2818036854-r3" x="146.4" y="142" textLength="12.2" clip-path="url(#terminal-2818036854-line-5)">│</text><text class="terminal-2818036854-r3" x="1061.4" y="142" textLength="12.2" clip-path="url(#terminal-2818036854-line-5)">│</text><text class="terminal-2818036854-r1" x="1220" y="142" textLength="12.2" clip-path="url(#terminal-2818036854-line-5)">
</text><text class="terminal-2818036854-r3" x="146.4" y="166.4" textLength="12.2" clip-path="url(#terminal-2818036854-line-6)">│</text><text class="terminal-2818036854-r4" x="195.2" y="166.4" textLength="73.2" clip-path="url(#terminal-2818036854-line-6)">PENTUI</text><text class="terminal-2818036854-r3" x="1061.4" y="166.4" textLength="12.2" clip-path="url(#terminal-2818036854-line-6)">│</text><text class="terminal-2818036854-r1" x="1220" y="166.4" textLength="12.2" clip-path="url(#terminal-2818036854-line-6)">
</text><text class="terminal-2818036854-r3" x="146.4" y="190.8" textLength="12.2" clip-path="url(#terminal-2818036854-line-7)">│</text><text class="terminal-2818036854-r3" x="195.2" y="190.8" textLength="353.8" clip-path="url(#terminal-2818036854-line-7)">AUTHORIZED&#160;ASSESSMENT&#160;CONSOLE</text><text class="terminal-2818036854-r3" x="1061.4" y="190.8" textLength="12.2" clip-path="url(#terminal-2818036854-line-7)">│</text><text class="terminal-2818036854-r1" x="1220" y="190.8" textLength="12.2" clip-path="url(#terminal-2818036854-line-7)">
</text><text class="terminal-2818036854-r3" x="146.4" y="215.2" textLength="12.2" clip-path="url(#terminal-2818036854-line-8)">│</text><text class="terminal-2818036854-r3" x="1061.4" y="215.2" textLength="12.2" clip-path="url(#terminal-2818036854-line-8)">│</text><text class="terminal-2818036854-r1" x="1220" y="215.2" textLength="12.2" clip-path="url(#terminal-2818036854-line-8)">
</text><text class="terminal-2818036854-r3" x="146.4" y="239.6" textLength="12.2" clip-path="url(#terminal-2818036854-line-9)">│</text><text class="terminal-2818036854-r3" x="195.2" y="239.6" textLength="780.8" clip-path="url(#terminal-2818036854-line-9)">────────────────────────────────────────────────────────────────</text><text class="terminal-2818036854-r3" x="1061.4" y="239.6" textLength="12.2" clip-path="url(#terminal-2818036854-line-9)">│</text><text class="terminal-2818036854-r1" x="1220" y="239.6" textLength="12.2" clip-path="url(#terminal-2818036854-line-9)">
</text><text class="terminal-2818036854-r3" x="146.4" y="264" textLength="12.2" clip-path="url(#terminal-2818036854-line-10)">│</text><text class="terminal-2818036854-r3" x="1061.4" y="264" textLength="12.2" clip-path="url(#terminal-2818036854-line-10)">│</text><text class="terminal-2818036854-r1" x="1220" y="264" textLength="12.2" clip-path="url(#terminal-2818036854-line-10)">
</text><text class="terminal-2818036854-r3" x="146.4" y="288.4" textLength="12.2" clip-path="url(#terminal-2818036854-line-11)">│</text><text class="terminal-2818036854-r4" x="195.2" y="288.4" textLength="402.6" clip-path="url(#terminal-2818036854-line-11)">TOOLS&#160;&#160;/&#160;&#160;SELECT&#160;ONE&#160;TO&#160;CONFIGURE</text><text class="terminal-2818036854-r3" x="1061.4" y="288.4" textLength="12.2" clip-path="url(#terminal-2818036854-line-11)">│</text><text class="terminal-2818036854-r1" x="1220" y="288.4" textLength="12.2" clip-path="url(#terminal-2818036854-line-11)">
</text><text class="terminal-2818036854-r3" x="146.4" y="312.8" textLength="12.2" clip-path="url(#terminal-2818036854-line-12)">│</text><text class="terminal-2818036854-r3" x="1061.4" y="312.8" textLength="12.2" clip-path="url(#terminal-2818036854-line-12)">│</text><text class="terminal-2818036854-r1" x="1220" y="312.8" textLength="12.2" clip-path="url(#terminal-2818036854-line-12)">
</text><text class="terminal-2818036854-r3" x="146.4" y="337.2" textLength="12.2" clip-path="url(#terminal-2818036854-line-13)">│</text><text class="terminal-2818036854-r5" x="256.2" y="337.2" textLength="707.6" clip-path="url(#terminal-2818036854-line-13)">Nmap&#160;&#160;&#160;&#160;&#160;&#160;&#160;&#160;&#160;Network&#160;discovery&#160;and&#160;service&#160;scanning&#160;&#160;READY</text><text class="terminal-2818036854-r3" x="1061.4" y="337.2" textLength="12.2" clip-path="url(#terminal-2818036854-line-13)">│</text><text class="terminal-2818036854-r1" x="1220" y="337.2" textLength="12.2" clip-path="url(#terminal-2818036854-line-13)">
</text><text class="terminal-2818036854-r3" x="146.4" y="361.6" textLength="12.2" clip-path="url(#terminal-2818036854-line-14)">│</text><text class="terminal-2818036854-r4" x="256.2" y="361.6" textLength="707.6" clip-path="url(#terminal-2818036854-line-14)">SQLMap&#160;&#160;&#160;&#160;&#160;&#160;&#160;Web&#160;request&#160;injection&#160;testing&#160;&#160;&#160;&#160;&#160;&#160;&#160;&#160;&#160;&#160;&#160;READY</text><text class="terminal-2818036854-r3" x="1061.4" y="361.6" textLength="12.2" clip-path="url(#terminal-2818036854-line-14)">│</text><text class="terminal-2818036854-r1" x="1220" y="361.6" textLength="12.2" clip-path="url(#terminal-2818036854-line-14)">
</text><text class="terminal-2818036854-r3" x="146.4" y="386" textLength="12.2" clip-path="url(#terminal-2818036854-line-15)">│</text><text class="terminal-2818036854-r4" x="256.2" y="386" textLength="707.6" clip-path="url(#terminal-2818036854-line-15)">Subfinder&#160;&#160;&#160;&#160;Passive&#160;subdomain&#160;discovery&#160;&#160;&#160;&#160;&#160;&#160;&#160;&#160;&#160;&#160;&#160;&#160;&#160;READY</text><text class="terminal-2818036854-r3" x="1061.4" y="386" textLength="12.2" clip-path="url(#terminal-2818036854-line-15)">│</text><text class="terminal-2818036854-r1" x="1220" y="386" textLength="12.2" clip-path="url(#terminal-2818036854-line-15)">
</text><text class="terminal-2818036854-r3" x="146.4" y="410.4" textLength="12.2" clip-path="url(#terminal-2818036854-line-16)">│</text><text class="terminal-2818036854-r4" x="256.2" y="410.4" textLength="707.6" clip-path="url(#terminal-2818036854-line-16)">HTTPX&#160;&#160;&#160;&#160;&#160;&#160;&#160;&#160;HTTP&#160;service&#160;probing&#160;&#160;&#160;&#160;&#160;&#160;&#160;&#160;&#160;&#160;&#160;&#160;&#160;&#160;&#160;&#160;&#160;&#160;&#160;&#160;READY</text><text class="terminal-2818036854-r3" x="1061.4" y="410.4" textLength="12.2" clip-path="url(#terminal-2818036854-line-16)">│</text><text class="terminal-2818036854-r1" x="1220" y="410.4" textLength="12.2" clip-path="url(#terminal-2818036854-line-16)">
</text><text class="terminal-2818036854-r3" x="146.4" y="434.8" textLength="12.2" clip-path="url(#terminal-2818036854-line-17)">│</text><text class="terminal-2818036854-r4" x="256.2" y="434.8" textLength="707.6" clip-path="url(#terminal-2818036854-line-17)">WhatWeb&#160;&#160;&#160;&#160;&#160;&#160;Web&#160;technology&#160;identification&#160;&#160;&#160;&#160;&#160;&#160;&#160;&#160;&#160;&#160;&#160;READY</text><text class="terminal-2818036854-r3" x="1061.4" y="434.8" textLength="12.2" clip-path="url(#terminal-2818036854-line-17)">│</text><text class="terminal-2818036854-r1" x="1220" y="434.8" textLength="12.2" clip-path="url(#terminal-2818036854-line-17)">
</text><text class="terminal-2818036854-r3" x="146.4" y="459.2" textLength="12.2" clip-path="url(#terminal-2818036854-line-18)">│</text><text class="terminal-2818036854-r4" x="256.2" y="459.2" textLength="707.6" clip-path="url(#terminal-2818036854-line-18)">FFUF&#160;&#160;&#160;&#160;&#160;&#160;&#160;&#160;&#160;Wordlist-driven&#160;content&#160;discovery&#160;&#160;&#160;&#160;&#160;&#160;&#160;READY</text><text class="terminal-2818036854-r3" x="1061.4" y="459.2" textLength="12.2" clip-path="url(#terminal-2818036854-line-18)">│</text><text class="terminal-2818036854-r1" x="1220" y="459.2" textLength="12.2" clip-path="url(#terminal-2818036854-line-18)">
</text><text class="terminal-2818036854-r3" x="146.4" y="483.6" textLength="12.2" clip-path="url(#terminal-2818036854-line-19)">│</text><text class="terminal-2818036854-r3" x="1061.4" y="483.6" textLength="12.2" clip-path="url(#terminal-2818036854-line-19)">│</text><text class="terminal-2818036854-r1" x="1220" y="483.6" textLength="12.2" clip-path="url(#terminal-2818036854-line-19)">
</text><text class="terminal-2818036854-r3" x="146.4" y="508" textLength="12.2" clip-path="url(#terminal-2818036854-line-20)">│</text><text class="terminal-2818036854-r3" x="195.2" y="508" textLength="427" clip-path="url(#terminal-2818036854-line-20)">ENTER&#160;select&#160;&#160;·&#160;&#160;↑↓&#160;move&#160;&#160;·&#160;&#160;Q&#160;quit</text><text class="terminal-2818036854-r3" x="1061.4" y="508" textLength="12.2" clip-path="url(#terminal-2818036854-line-20)">│</text><text class="terminal-2818036854-r1" x="1220" y="508" textLength="12.2" clip-path="url(#terminal-2818036854-line-20)">
</text><text class="terminal-2818036854-r3" x="146.4" y="532.4" textLength="12.2" clip-path="url(#terminal-2818036854-line-21)">│</text><text class="terminal-2818036854-r3" x="1061.4" y="532.4" textLength="12.2" clip-path="url(#terminal-2818036854-line-21)">│</text><text class="terminal-2818036854-r1" x="1220" y="532.4" textLength="12.2" clip-path="url(#terminal-2818036854-line-21)">
</text><text class="terminal-2818036854-r3" x="146.4" y="556.8" textLength="12.2" clip-path="url(#terminal-2818036854-line-22)">╰</text><text class="terminal-2818036854-r3" x="158.6" y="556.8" textLength="902.8" clip-path="url(#terminal-2818036854-line-22)">──────────────────────────────────────────────────────────────────────────</text><text class="terminal-2818036854-r3" x="1061.4" y="556.8" textLength="12.2" clip-path="url(#terminal-2818036854-line-22)">╯</text><text class="terminal-2818036854-r1" x="1220" y="556.8" textLength="12.2" clip-path="url(#terminal-2818036854-line-22)">
</text><text class="terminal-2818036854-r1" x="1220" y="581.2" textLength="12.2" clip-path="url(#terminal-2818036854-line-23)">
</text><text class="terminal-2818036854-r1" x="1220" y="605.6" textLength="12.2" clip-path="url(#terminal-2818036854-line-24)">
</text><text class="terminal-2818036854-r1" x="1220" y="630" textLength="12.2" clip-path="url(#terminal-2818036854-line-25)">
</text><text class="terminal-2818036854-r1" x="1220" y="654.4" textLength="12.2" clip-path="url(#terminal-2818036854-line-26)">
</text><text class="terminal-2818036854-r1" x="1220" y="678.8" textLength="12.2" clip-path="url(#terminal-2818036854-line-27)">
</text><text class="terminal-2818036854-r1" x="1220" y="703.2" textLength="12.2" clip-path="url(#terminal-2818036854-line-28)">
</text><text class="terminal-2818036854-r1" x="1220" y="727.6" textLength="12.2" clip-path="url(#terminal-2818036854-line-29)">
</text><text class="terminal-2818036854-r1" x="1220" y="752" textLength="12.2" clip-path="url(#terminal-2818036854-line-30)">
</text><text class="terminal-2818036854-r6" x="0" y="776.4" textLength="36.6" clip-path="url(#terminal-2818036854-line-31)">&#160;q&#160;</text><text class="terminal-2818036854-r7" x="36.6" y="776.4" textLength="61" clip-path="url(#terminal-2818036854-line-31)">Quit&#160;</text><text class="terminal-2818036854-r8" x="1073.6" y="776.4" textLength="12.2" clip-path="url(#terminal-2818036854-line-31)">▏</text><text class="terminal-2818036854-r6" x="1085.8" y="776.4" textLength="24.4" clip-path="url(#terminal-2818036854-line-31)">^p</text><text class="terminal-2818036854-r7" x="1110.2" y="776.4" textLength="97.6" clip-path="url(#terminal-2818036854-line-31)">&#160;palette</text>
    </g>
    </g>
</svg>
